<svg viewBox="0 0 3508 2481" xmlns="http://www.w3.org/2000/svg" xmlns:serif="http://www.serif.com/" fill-rule="evenodd" clip-rule="evenodd" stroke-linejoin="round" stroke-miterlimit="1.414"><g serif:id="Layer 5"><path d="M-135.304 1752.21s595.777-188.14 680.44-185c84.663 3.13 241.447-12.55 241.447-12.55s250.857 15.68 269.667 0c18.81-15.67 90.93-53.3 119.16-56.44 28.22-3.13 112.88-37.62 128.56-56.44 15.68-18.81 97.2-84.66 100.34-106.61 3.13-21.95 81.53-50.17 112.88-59.58 31.36-9.41 75.26-18.81 87.8-34.49 12.55-15.68 25.09-37.63 47.04-47.04 21.95-9.4 106.61-12.54 137.97-25.08 31.35-12.55 84.66-21.95 97.2-40.77 12.55-18.81 68.99-53.3 97.21-53.3s194.41 3.13 228.9-12.54c34.49-15.68 65.85 15.67 87.8 37.62 21.95 21.95 97.21 53.31 119.16 72.12 21.95 18.82 15.68 9.41 50.17 31.36s21.95 31.36 59.57 37.63c37.63 6.27-3.13 6.27 47.04 6.27s59.58-6.27 59.58-6.27l28.22-18.82 28.22-34.49 21.95-31.36 159.92-72.11s25.08-9.41 81.53-25.09c56.44-15.68 112.88-103.478 112.88-103.478s72.12-50.171 116.02-68.985c43.9-18.814 84.66-87.798 137.97 28.221 53.31 116.022 141.11 15.679 156.78-6.271 15.68-21.95 28.22-68.985 28.22-68.985V2479.69H-.47l-134.834-727.48z" fill="url(#_Linear1)" transform="translate(-1.915)" serif:id="Layer 5"/><path d="M1575.01 1438.54l113.38 16.85 121.05-29.11s41.38-21.45 99.6-35.24c58.23-13.79 56.69-38.31 56.69-38.31s-4.59 16.86-90.4 18.39l-76.61 39.84-104.2 24.51-119.51 3.07z" fill="url(#_Linear2)" transform="matrix(1.05392 0 0 1.95149 -165.293 -1358.67)"/><path d="M2373.27 1144.94c-9.44 13.9-20.26 33.22-19.38 47.28 1.53 24.51 21.45 44.43 21.45 44.43s-10.73 42.91 4.6 45.97c15.32 3.07 49.03 3.07 49.03 3.07l33.71 75.08-44.44 82.74-231.37-125.65 27.58-96.66-18.47-44.18-10.45-23.3-1.6-51.01 34.54-26.11s23.7-20.08 45.79-6.83l.72.41c12.9 8.5 24.48 20.08 34.22 29.81 13.17 13.18 45.55 29.74 74.07 44.95z" fill="url(#_Linear3)"/><path serif:id="Layer 5" d="M2525.32 1240.61c.9.17 1.82.33 2.78.49 37.63 6.27-3.14 6.27 47.04 6.27 10.15 0 18.63-.26 25.71-.67 1.68 1.62 2.61 2.63 2.61 2.63l3.51 9.04 20.09 15.06 35.32 6.7 73.55 20.84 76 109.1 125.03 76-71.09 33.09-64.97 9.81-72.32-4.9s-104.2-57.62-106.65-69.87c-2.45-12.26-25.74-58.84-34.32-66.2-8.58-7.35 0-33.1-1.23-53.93-1.22-20.84-12.25-25.74-12.25-25.74l-49.04-67.43c.08-.09.16-.19.23-.29z" fill="url(#_Linear4)"/><path serif:id="Layer 5" d="M2912.53 1071.42l30.87-7.72-26.35 69.01-36.77 13.48-28.2 39.23-45.35 56.39-9.81 105.41s-12.26 34.33-31.87 46.59c-19.61 12.25-39.22 40.45-39.22 40.45l-46.59 46.58-22.06-78.46 8.58-30.64-6.13-41.68s-4.9-7.35 3.68-17.16c8.58-9.8 9.81-13.48 18.39-22.06 8.58-8.58 35.54-26.66 33.09-35.4l-22.73-41.92 10.87-42.56 10.18-14.53 148.21-66.84 48.63-17.39c.84-.25 1.7-.52 2.58-.78z" fill="url(#_Linear5)"/><path d="M3317.49 1491.78l50.88-101.75 38.9-8.98 2.99-83.79s-20.95-11.97 8.98-35.91c29.93-23.95 41.9-41.9 41.9-41.9l8.98-50.88 41.89-53.87v395.04l23.95 50.88-248.4-32.92 29.93-35.92z" fill="url(#_Linear6)"/><path d="M1977.04 1452.64l55.54-105.34s3.83-32.56-3.83-53.63-9.58-30.65-9.58-30.65 5.75-30.64 9.58-47.88c3.83-17.24 7.66-40.22 7.66-40.22v-34.48l12.04 37.29-1.5 31.64v17.07l-5.53 40.16 21.59 28.12 10.05 32.14s15.56 23.09 33.64 23.09l-25.61 2.51-12.05-.5-6.03-12.55-3.51 26.61 14.06 16.07 14.56 24.09s-124.26 85.88-111.08 46.46z" fill="url(#_Linear7)" transform="matrix(1.89432 0 0 1 -1824.78 22.804)"/><path d="M1621.56 1325.08c-50.27 50.28 69.43-86.12 69.43-86.12l79.01-21.55 79.01-23.94 33.52-33.51-38.31 64.64c2.33-23.76-30.56-15.79-84.92 26.22-17.51 1.95-34.63-2.41-65.99 12.74 0 0-21.47 11.24-71.75 61.52z" fill="url(#_Linear8)"/><path d="M1334.82 1475.01l62.24-69.43 50.28-35.91 16.76-35.92s35.91-14.36 67.04-28.73c31.12-14.36 57.46-31.12 57.46-31.12l-100.56 74.22v38.3l-9.57 23.95-11.97 21.54 2.39 31.13 19.15 11.97 34.68 45.12h-225.94l38.04-45.12z" fill="url(#_Linear9)"/><path serif:id="Layer 5" d="M3273.79 852.829c14.94 7.011 30.65 25.196 47.64 62.159 29.29 63.761 69 62.176 101.44 44.167.41 1.437.61 2.215.61 2.215l-21.07 30.645s-22.98 11.495-34.47 26.815c-11.5 15.32-21.07 38.31-21.07 38.31l-11.49 49.79-22.99 26.82s-30.64 11.49-30.64 28.73c0 17.24-24.9 55.54-36.39 78.53-11.5 22.98-90.02 44.05-90.02 44.05l-128.33 93.85s15.32-74.7 19.15-91.93c3.83-17.24 15.32-88.11 15.32-88.11s45.97-59.37 59.38-72.78c13.41-13.41 19.15-51.72 24.9-68.95 5.74-17.24 5.74-51.72 5.74-51.72l-9.57-26.812 42.14-44.053 19.15-19.153 70.57-62.573z" fill="url(#_Linear10)"/></g><path d="M-16.149 1520.17H3505.21v959.52H-3.606l-12.543-959.52z" fill="url(#_Linear11)" transform="matrix(-1 0 0 1 3489.06 0)"/><circle cx="363.197" cy="1278.06" r="504.705" fill="url(#_Radial12)" transform="translate(-468.296 -632.064) scale(1.67491)"/><defs><linearGradient id="_Linear1" x2="1" gradientUnits="userSpaceOnUse" gradientTransform="rotate(90 1205.402 2056.878) scale(1621.77)"><stop offset="0" stop-color="#633b5c"/><stop offset=".37" stop-color="#835568"/><stop offset=".77" stop-color="#db9f89"/><stop offset="1" stop-color="#f5bb94"/></linearGradient><linearGradient id="_Linear2" x2="1" gradientUnits="userSpaceOnUse" gradientTransform="matrix(25.4427 38.2772 -70.876 13.7405 1729.58 1407.19)"><stop offset="0" stop-opacity=".03"/><stop offset="1" stop-color="#4d4d4d" stop-opacity=".03"/></linearGradient><linearGradient id="_Linear3" x2="1" gradientUnits="userSpaceOnUse" gradientTransform="rotate(-134.145 1431.835 143.165) scale(217.803)"><stop offset="0" stop-opacity="0"/><stop offset="1" stop-opacity=".04"/></linearGradient><linearGradient id="_Linear4" x2="1" gradientUnits="userSpaceOnUse" gradientTransform="rotate(-14.686 7022.217 -8586.854) scale(318.7281)"><stop offset="0" stop-opacity=".05"/><stop offset=".48" stop-opacity=".037"/><stop offset="1" stop-opacity="0"/></linearGradient><linearGradient id="_Linear5" x2="1" gradientUnits="userSpaceOnUse" gradientTransform="rotate(46.364 51.435 3739.008) scale(177.807)"><stop offset="0" stop-opacity=".05"/><stop offset=".48" stop-opacity=".037"/><stop offset="1" stop-opacity="0"/></linearGradient><linearGradient id="_Linear6" x2="1" gradientUnits="userSpaceOnUse" gradientTransform="rotate(63.435 741.507 3367.898) scale(247.599)"><stop offset="0" stop-opacity=".03"/><stop offset="1" stop-opacity="0"/></linearGradient><linearGradient id="_Linear7" x2="1" gradientUnits="userSpaceOnUse" gradientTransform="matrix(-10.5153 -229.839 121.33 -19.9194 2039.01 1380.99)"><stop offset="0" stop-opacity=".04"/><stop offset="1" stop-color="#4d4d4d" stop-opacity=".04"/></linearGradient><linearGradient id="_Linear8" x2="1" gradientUnits="userSpaceOnUse" gradientTransform="rotate(68.051 -42.632 1862.59) scale(88.5471)"><stop offset="0" stop-opacity=".04"/><stop offset="1" stop-color="#4d4d4d" stop-opacity=".04"/></linearGradient><linearGradient id="_Linear9" x2="1" gradientUnits="userSpaceOnUse" gradientTransform="rotate(-131.597 1084.586 431.804) scale(200.796)"><stop offset="0" stop-opacity=".04"/><stop offset="1" stop-color="#4d4d4d" stop-opacity=".04"/></linearGradient><linearGradient id="_Linear10" x2="1" gradientUnits="userSpaceOnUse" gradientTransform="rotate(60.255 819.152 3163.963) scale(217.151)"><stop offset="0" stop-opacity="0"/><stop offset=".48" stop-opacity=".008"/><stop offset="1" stop-opacity=".03"/></linearGradient><linearGradient id="_Linear11" x2="1" gradientUnits="userSpaceOnUse" gradientTransform="matrix(3521.36 0 0 959.515 -16.149 1999.93)"><stop offset="0" stop-color="#ec6d7e"/><stop offset="1" stop-color="#f5bb94"/></linearGradient><radialGradient id="_Radial12" cx="0" cy="0" r="1" gradientUnits="userSpaceOnUse" gradientTransform="translate(363.197 1278.06) scale(504.705)"><stop offset="0" stop-color="#fff675"/><stop offset="0" stop-color="#f5e07c"/><stop offset=".08" stop-color="#f5d682" stop-opacity=".98"/><stop offset=".17" stop-color="#f5bb94" stop-opacity=".925"/><stop offset=".61" stop-color="#f5bb94" stop-opacity=".255"/><stop offset="1" stop-color="#f5bb94" stop-opacity="0"/></radialGradient></defs></svg>