<svg viewBox="0 0 3508 2481" xmlns="http://www.w3.org/2000/svg" xmlns:serif="http://www.serif.com/" fill-rule="evenodd" clip-rule="evenodd" stroke-linejoin="round" stroke-miterlimit="1.414"><path serif:id="Layer 3" d="M-15.879 2469.5L-.47 1172.11s43.899-25.08 68.984-9.4c23.518 14.69 107.666 32.15 118.093 34.27l1.063.22c28.221 53.31 84.663 72.12 84.663 72.12s87.799-3.14 103.477 6.27c15.678 9.41 25.085 31.36 25.085 31.36l15.679 37.63 37.628 37.62 56.442 31.36 45.938 25.97s154.745 175.34 151.609 197.29c-3.136 21.95-15.678 75.26-15.678 75.26l6.271 37.62 9.407 50.18 15.678 53.3-34.492 25.09-3.136 43.9-18.814 40.76 12.543 78.39 3.136 31.36-12.543 40.76-3.136 87.8s31.357 34.49 37.628 81.53c6.272 47.03 18.814 119.15 18.814 119.15l-25.085 67.58H-15.879z" fill="url(#_Linear1)"/><path d="M79.7 1729.7l179.507-59.83 203.816-3.74 54.226-57.97-65.446 39.27-192.596-26.18-54.226-72.92-11.219 59.83v52.36l-54.226 5.61s-78.534 35.53-59.836 63.57z" fill="url(#_Radial2)"/><path d="M43.548 1370.24l111.055 26.81 111.055-33.51 58.4 53.61-66.059-16.27-94.779 28.72s-6.702-13.4-119.672-59.36z" fill="url(#_Linear3)"/><g serif:id="Layer 3"><path d="M282.617 1288.8s40.67 4.21 51.889 0c11.219-4.21 32.255 19.63 32.255 19.63l12.622 33.66 35.06 58.9s-106.583-89.75-131.826-112.19" fill="url(#_Linear4)"/><path serif:id="Layer 3" d="M689.377 1878.27l-3.136 43.9-.604 1.31-105.879 20.63 109.619-65.84z" fill="url(#_Linear5)"/><path d="M-1.448 1200.79l26.806-29.68h20.105l9.574 28.72 34.465 23.94 54.57-5.75 23.935 89.04-26.807-48.83s-54.57-5.74-60.314-8.62c-5.744-2.87-57.442 4.79-57.442 9.58 0 4.78 12.445 96.69 12.445 96.69l-24.891-48.82-7.659-57.45-4.787-48.82z" fill="url(#_Linear6)"/><path d="M-11.245 2086.76l143.605 43.38 161.557-23.94 79.282-73.3 11.967-71.8-8.504 82.28-77.142 90.28s-90.07 12.87-106.613 31.25c-16.543 18.38-96.197-12.87-96.197-12.87l17.156-9.19-9.19-11.64-37.376 4.9 17.156-9.8-95.701-39.55z" fill="url(#_Linear7)"/><path d="M207.244 1549.81l106.613 52.08 155.63-21.45-12.867 39.22-11.029 29.41-177.075-2.45s-64.336-65.56-61.272-96.81" fill="none"/><path serif:id="Layer 3" d="M708.164 1635.09c.088.65.098 1.23.027 1.73-3.045 21.31-14.962 72.2-15.648 75.12l-90.197 15.66-100.973-23.56 105.075 5.11 77.547-60.89 24.169-13.17z" fill="url(#_Linear8)"/></g><defs><linearGradient id="_Linear1" x2="1" gradientUnits="userSpaceOnUse" gradientTransform="rotate(90 -557.743 590.697) scale(1929.57)"><stop offset="0" stop-color="#2e3550"/><stop offset=".67" stop-color="#4a3f57"/><stop offset=".85" stop-color="#9a5d6a"/><stop offset="1" stop-color="#fe8282"/></linearGradient><radialGradient id="_Radial2" cx="0" cy="0" r="1" gradientUnits="userSpaceOnUse" gradientTransform="translate(268.557 1886.77) scale(259.635)"><stop offset="0" stop-opacity="0"/><stop offset=".67" stop-opacity=".004"/><stop offset=".85" stop-opacity=".016"/><stop offset="1" stop-opacity=".03"/></radialGradient><linearGradient id="_Linear3" x2="1" gradientUnits="userSpaceOnUse" gradientTransform="rotate(83.77 -648.02 667.307) scale(220.5406)"><stop offset="0" stop-opacity="0"/><stop offset=".67" stop-opacity=".005"/><stop offset=".85" stop-opacity=".021"/><stop offset="1" stop-opacity=".04"/></linearGradient><linearGradient id="_Linear4" x2="1" gradientUnits="userSpaceOnUse" gradientTransform="matrix(131.826 0 0 112.69 282.617 1344.65)"><stop offset="0" stop-opacity="0"/><stop offset=".48" stop-opacity=".011"/><stop offset="1" stop-opacity=".04"/></linearGradient><linearGradient id="_Linear5" x2="1" gradientUnits="userSpaceOnUse" gradientTransform="rotate(-98.383 1169.849 682.174) scale(55.15968)"><stop offset="0" stop-opacity="0"/><stop offset="1" stop-opacity=".04"/></linearGradient><linearGradient id="_Linear6" x2="1" gradientUnits="userSpaceOnUse" gradientTransform="rotate(-65.496 985.42 758.484) scale(226.2094)"><stop offset="0" stop-opacity="0"/><stop offset=".67" stop-opacity=".005"/><stop offset=".85" stop-opacity=".021"/><stop offset="1" stop-opacity=".04"/></linearGradient><linearGradient id="_Linear7" x2="1" gradientUnits="userSpaceOnUse" gradientTransform="rotate(75.655 -1130.96 1016.54) scale(331.3958)"><stop offset="0" stop-opacity="0"/><stop offset=".67" stop-opacity=".008"/><stop offset=".85" stop-opacity=".031"/><stop offset="1" stop-opacity=".06"/></linearGradient><linearGradient id="_Linear8" x2="1" gradientUnits="userSpaceOnUse" gradientTransform="rotate(-110.556 960 674.08) scale(112.8813)"><stop offset="0" stop-opacity="0"/><stop offset=".67" stop-opacity=".005"/><stop offset=".85" stop-opacity=".021"/><stop offset="1" stop-opacity=".04"/></linearGradient></defs></svg>