<svg viewBox="0 0 304 171" xmlns="http://www.w3.org/2000/svg" fill-rule="evenodd" clip-rule="evenodd" stroke-linecap="round" stroke-linejoin="round" stroke-miterlimit="1.5"><path d="M206.02 46.402c-16.393-18.83-48.247-6.663-48.247 18.138 0 0-.274 5.28-.8 7.862a38.537 38.537 0 0 1-2.291 7.324c-3.92 9.252-11.584 16.918-20.872 20.776-19.478 8.088-42.91-1.304-51.17-20.776C70.958 52.18 95.325 21.79 124.81 26.16c3.694.548 7.37 1.595 10.728 3.232a39.385 39.385 0 0 1 9.808 6.783 47.96 47.96 0 0 0-5.7 10.61c-2.245-2.663-5.99-5.804-9.254-7.146-5.84-2.402-10.376-3.327-16.622-2.117C96.94 40.784 86.611 59.38 93.217 75.26c1.087 2.612 2.63 5.066 4.466 7.219 16.137 18.919 48.61 6.603 48.61-17.94 0-34.635 44.665-51.898 67.842-26.253l-8.115 8.116m17.965 13.454c4.584 37.099-38.419 59.702-65.308 33.133 2.464-3.507 6.543-11.28 5.727-10.562 14.915 21.644 46.735 10.572 48.004-12.813h-21.209l9.758-9.758h23.028M33.584 124.544l-2.577 2.56a8.095 8.095 0 0 0-5.732-2.371c-4.482 0-6.665 3.567-6.665 8.05 0 4.48 2.183 8.19 6.665 8.19 2.24 0 4.27-.91 5.74-2.38l2.569 2.569a11.603 11.603 0 0 1-8.31 3.502c-6.454 0-10.613-5.293-10.613-11.811 0-6.52 4.159-11.811 10.614-11.811 3.248 0 6.189 1.34 8.309 3.502m2.947-2.695h4.319v9.218h6.952v-9.218h4.319v22.007H47.8v-9.218h-6.95v9.218h-4.32V121.85m17.76 22.006l9.933-22.814 9.793 22.814H69.65l-2.02-4.823-6.747.005-2.1 4.818H54.29m11.84-8.39l-1.87-4.475-1.879 4.476h3.748m14.272 8.389h-4.318V121.85H80.4c9.758-.4 9.277 5.92 9.267 6.616.091 3.836-2.397 5.34-4.817 5.907l7.817 9.484h-5.352l-6.915-8.39v8.39m0-12.227v-6.051s4.925-1.009 4.925 2.684-2.953 3.449-4.925 3.367m14.28-9.8H99v17.69h8.844v4.318H94.68v-22.007m28.352 3.621h-7.914v4.923h6.852v3.522h-6.852v5.622h7.914v4.32H110.8V121.83h12.232v3.62m17.016 2.914s-.155-6.918-7.233-6.918c-.22-.153-7.405.282-7.039 7.32-.053-.256-.115 5.59 5.699 5.441 0 0 4.81-.588 4.607 3.077-.17 3.063-3.306 2.863-4.2 2.556-.895-.306-2.217-1.437-2.256-2.771h-4.122s.117 7.167 7.622 7.213c7.968.049 7.28-8.042 7.272-8.04 0 0-.035-5.624-6.593-5.658 0 0-3.664.354-3.79-2.039-.125-2.375 1.87-2.778 2.727-2.78 1.074-.003 2.795.284 3.145 2.59l4.161.01m33.259 4.579c.013 3.343-2.579 11.804-11.696 11.72-6.353.054-11.696-5.202-11.696-11.72 0-6.52 5.24-11.811 11.696-11.811 3.248 0 6.189 1.34 8.309 3.502l-2.577 2.56a8.095 8.095 0 0 0-5.732-2.371c-4.482 0-7.323 3.638-7.323 8.12l.033.827c.326 4.079 3.07 7.27 7.29 7.293 3.907-.021 6.549-2.76 7.178-6.403l-5.236.059v-3.553h9.754v1.777m6.736 10.921h-4.319v-22.007h4.319c9.758-.4 9.277 5.92 9.267 6.616.09 3.836-2.397 5.34-4.818 5.907l7.818 9.484h-5.352l-6.915-8.389v8.39m0-12.228v-6.051s4.924-1.009 4.924 2.684c0 3.694-2.953 3.449-4.924 3.368" fill="#fff"/><path d="M208.79 136.414c-.107 5.66-7.084 10.192-12.427 6.922-2.385-1.46-3.914-4.184-3.931-7.021v-13.944h4.166c0 4.663-.028 9.327 0 13.99.058 3.013 4.229 5.276 6.74 2.922a4.142 4.142 0 0 0 1.286-2.981V122.37h4.166c0 4.68.03 9.362 0 14.043" fill="#fff" fill-rule="nonzero"/><path d="M224.032 125.452h-7.914v4.923h6.852v3.522h-6.852v5.622h7.914v4.32H211.8V121.83h12.232v3.62m3.747-3.61h4.318l6.952 13.168V121.84h4.319v22.007h-4.319l-6.952-12.933v12.933h-4.319V121.84m16.923 22.007l9.934-22.814 9.792 22.814h-4.367l-2.02-4.823-6.747.005-2.1 4.818h-4.492m11.84-8.39l-1.869-4.475-1.88 4.476h3.749m10.297-13.618h4.318v22.008h-4.318V121.84m22.11 6.506s-.155-6.918-7.233-6.918c-.22-.153-7.405.282-7.039 7.32-.053-.256-.115 5.59 5.699 5.441 0 0 4.81-.588 4.607 3.077-.17 3.063-3.306 2.863-4.2 2.556-.895-.306-2.217-1.437-2.256-2.771h-4.122s.117 7.167 7.622 7.213c7.968.049 7.28-8.042 7.272-8.04 0 0-.036-5.624-6.593-5.658 0 0-3.664.354-3.79-2.039-.125-2.375 1.87-2.778 2.727-2.78 1.074-.003 2.795.284 3.145 2.59l4.161.01" fill="#fff"/></svg>