<svg viewBox="0 0 3508 2481" xmlns="http://www.w3.org/2000/svg" xmlns:serif="http://www.serif.com/" fill-rule="evenodd" clip-rule="evenodd" stroke-linejoin="round" stroke-miterlimit="1.414"><path serif:id="Layer 4" d="M-577.835 1513.25c34.39 28.23 92.115 29.12 92.115 29.12s85.717-19.11 102.279-16.22c16.561 2.9 28.55 14.95 28.55 14.95l20.114 20.76 41.642 16.47 59.305 8.83 75.866 11.73 47.71-1.24 57.414 15.4c66.557-2.93 139.825 27.88 161.747 25.58 21.923-2.29 162.768-1.43 178.145-4.49 15.377-3.06-6.941-2.75 31.149-4.13 38.089-1.39 148.969 9.56 201.728 17.63 52.759 8.07 129.415 23.77 129.415 23.77s30.671-22.61 76.655 15.69 94.878 43.02 121.85 50.03c26.972 7.01 16.561 2.89 58.203 19.37 41.642 16.47 62.298-8.27 82.099 26.99 19.799 35.25.955 36.94 59.949 60.27 58.99 23.34 92.51 31.11 92.51 31.11s-7.25 11.76 57.33-1.09 41.16-2 133.03-22.34c91.87-20.33 97.23-25.53 159.13-35.78 61.91-10.25 19.16-16.18 125.08 1.94 105.91 18.13 104.41 26.68 189.03 18.1 84.61-8.58 70.73-14.07 139.26-7.07 68.54 6.99 105.13 14.15 105.13 14.15l-1023.31 203.56 5.87-64.6-188.135-3.13-78.392 6.27-112.884 6.27-116.02-25.08-271.526 231.66-878.915 174.84-150.805-838.49s39.898-24.44 66.475-19.41c24.915 4.71 109.644-.66 120.138-1.35l1.069-.07z" fill="url(#_Linear1)"/><defs><linearGradient id="_Linear1" x2="1" gradientUnits="userSpaceOnUse" gradientTransform="rotate(90 -392.934 1139.746) scale(953.065)"><stop offset="0" stop-color="#4b4862"/><stop offset=".63" stop-color="#665a6a"/><stop offset=".83" stop-color="#a9887e"/><stop offset="1" stop-color="#f5bb94"/></linearGradient></defs></svg>