<svg viewBox="0 0 3508 2481" xmlns="http://www.w3.org/2000/svg" xmlns:xlink="http://www.w3.org/1999/xlink" fill-rule="evenodd" clip-rule="evenodd" stroke-linejoin="round" stroke-miterlimit="1.414"><defs><circle cx="44.055" cy="38.622" r="6" fill="#fff" id="a"/><circle cx="44.055" cy="38.622" r="4" fill="#fff" id="b"><animate attributeName="opacity" values="0.25;1;0.25" dur="1s" repeatCount="indefinite"/></circle><circle cx="44.055" cy="38.622" r="5" fill="#fff" id="c"><animate attributeName="opacity" values="0.25;1;0.25" dur="1.25s" begin="0.5s" repeatCount="indefinite"/></circle><g id="e" transform="matrix(1 0 0 1.41671 0 18.181)"><use xlink:href="#a" transform="translate(184.487 258.328) scale(.22867)"/><use xlink:href="#b" transform="translate(117.117 202.788) scale(.22867)"/><use xlink:href="#c" transform="translate(263.046 164.335) scale(.22867)"/><use xlink:href="#a" transform="translate(44.152 136.746) scale(.22867)"/><use xlink:href="#b" transform="translate(44.152 136.746) scale(.22867)"/><use xlink:href="#a" transform="translate(171.84 64.008) scale(.22867)"/><use xlink:href="#c" transform="translate(308.041 26.666) scale(.22867)"/><use xlink:href="#stat" transform="matrix(-.06153 -.22023 .22023 -.06153 666.97 309.17)"/><use xlink:href="#b" transform="rotate(-105.61 356.922 -127.14) scale(.22866)"/><use xlink:href="#c" transform="matrix(-.06153 -.22023 .22023 -.06153 540.066 262.24)"/><use xlink:href="#a" transform="matrix(-.06153 -.22023 .22023 -.06153 463.761 132.042)"/><use xlink:href="#b" transform="rotate(-105.61 380.956 -13.102) scale(.22866)"/><use xlink:href="#c" transform="rotate(-105.61 380.956 -13.102) scale(.22866)"/><use xlink:href="#a" transform="rotate(-105.61 289.513 -25.183) scale(.22866)"/><use xlink:href="#c" transform="rotate(-105.61 207.245 -58.19) scale(.22866)"/><use xlink:href="#b" transform="matrix(.22867 0 0 -.22867 818.47 71.36)"/><use xlink:href="#a" transform="matrix(.22867 0 0 -.22867 965.19 125.414)"/><use xlink:href="#a" transform="matrix(.22867 0 0 -.22867 897.819 180.954)"/><use xlink:href="#b" transform="translate(321.046 458.678) scale(.22867)"/><use xlink:href="#c" transform="translate(102.152 431.09) scale(.22867)"/><use xlink:href="#a" transform="translate(102.152 431.09) scale(.22867)"/><use xlink:href="#c" transform="translate(229.84 358.352) scale(.22867)"/><use xlink:href="#a" transform="translate(366.041 321.009) scale(.22867)"/><use xlink:href="#b" transform="rotate(-105.61 497.608 -1.98) scale(.22866)"/><use xlink:href="#a" transform="rotate(-105.611 422.678 15.212) scale(.22867)"/><use xlink:href="#a" transform="rotate(-105.61 347.93 66.97) scale(.22866)"/><use xlink:href="#b" transform="matrix(.22867 0 0 -.22867 876.47 365.703)"/><use xlink:href="#a" transform="matrix(.22867 0 0 -.22867 1023.19 419.758)"/><use xlink:href="#c" transform="matrix(.22867 0 0 -.22867 955.819 475.297)"/><use xlink:href="#a" transform="matrix(.22867 0 0 -.22867 1043.75 219.408)"/><use xlink:href="#b" transform="matrix(.22867 0 0 -.22867 824.855 246.996)"/><use xlink:href="#a" transform="matrix(.22867 0 0 -.22867 824.855 246.996)"/><use xlink:href="#b" transform="matrix(.22867 0 0 -.22867 952.543 319.734)"/><use xlink:href="#b" transform="matrix(.22867 0 0 -.22867 1088.74 357.077)"/><use xlink:href="#c" transform="matrix(-.06153 .22023 .22023 .06153 1447.67 74.572)"/><use xlink:href="#a" transform="matrix(-.06153 .22023 .22023 .06153 1356.13 201.334)"/><use xlink:href="#a" transform="matrix(-.06153 .22023 .22023 .06153 1320.77 121.502)"/><use xlink:href="#b" transform="matrix(-.06153 .22023 .22023 .06153 1244.46 251.701)"/><use xlink:href="#a" transform="matrix(-.06153 .22023 .22023 .06153 1276.8 33.457)"/><use xlink:href="#c" transform="matrix(-.06153 .22023 .22023 .06153 1276.8 33.457)"/><use xlink:href="#a" transform="matrix(-.06153 .22023 .22023 .06153 1172.38 136.861)"/><use xlink:href="#c" transform="matrix(-.06153 .22023 .22023 .06153 1099.76 257.989)"/><use xlink:href="#a" transform="matrix(.12949 .18847 .18847 -.12949 1777.66 -14.164)"/><use xlink:href="#b" transform="matrix(.12949 .18847 .18847 -.12949 1816.19 137.375)"/><use xlink:href="#a" transform="matrix(.12949 .18847 .18847 -.12949 1732.27 113.297)"/><use xlink:href="#a" transform="matrix(.12949 .18847 .18847 -.12949 1783.21 255.35)"/><use xlink:href="#c" transform="matrix(.12949 .18847 .18847 -.12949 1636.52 90.557)"/><use xlink:href="#a" transform="matrix(.12949 .18847 .18847 -.12949 1636.52 90.557)"/><use xlink:href="#b" transform="matrix(.12949 .18847 .18847 -.12949 1648.87 236.989)"/><use xlink:href="#b" transform="matrix(.12949 .18847 .18847 -.12949 1695.22 370.394)"/><use xlink:href="#a" transform="matrix(.18789 .074 -.06426 .21636 2655.01 61.454)"/><use xlink:href="#c" transform="matrix(-.21636 .074 .074 .21636 1975 502.585)"/><use xlink:href="#a" transform="matrix(-.21636 .074 .074 .21636 2020.77 428.233)"/><use xlink:href="#b" transform="matrix(-.22424 -.04479 -.04479 .22424 2095.63 345.025)"/><use xlink:href="#c" transform="scale(-.22867 .22867) rotate(-11.296 1846.866 49378)"/><use xlink:href="#a" transform="matrix(-.21636 .074 .074 .21636 1870.25 439.069)"/><use xlink:href="#c" transform="matrix(-.21636 .074 .074 .21636 2347.98 365.314)"/><use xlink:href="#a" transform="matrix(-.21636 .074 .074 .21636 2347.98 365.314)"/><use xlink:href="#a" transform="matrix(-.21636 .074 .074 .21636 1924.09 314.628)"/><use xlink:href="#b" transform="matrix(-.21636 .074 .074 .21636 1783.13 323.367)"/><use xlink:href="#a" transform="matrix(.12949 .18847 .18847 -.12949 2381.6 78.501)"/><use xlink:href="#c" transform="matrix(.12949 .18847 .18847 -.12949 2420.13 230.04)"/><use xlink:href="#b" transform="matrix(.12949 .18847 .18847 -.12949 2336.21 205.962)"/><use xlink:href="#c" transform="matrix(.12949 .18847 .18847 -.12949 2594.03 354.979)"/><use xlink:href="#b" transform="matrix(.18789 .074 -.06426 .21636 2455.71 427.495)"/><use xlink:href="#c" transform="matrix(.12949 .18847 .18847 -.12949 2467.17 469.438)"/><use xlink:href="#a" transform="matrix(.12949 .18847 .18847 -.12949 2383.24 445.361)"/><use xlink:href="#a" transform="matrix(.12949 .18847 .18847 -.12949 2434.18 587.414)"/><use xlink:href="#b" transform="matrix(.12949 .18847 .18847 -.12949 2240.46 183.222)"/><use xlink:href="#a" transform="matrix(.12949 .18847 .18847 -.12949 2240.46 183.222)"/><use xlink:href="#b" transform="matrix(.12949 .18847 .18847 -.12949 2459.69 336.618)"/><use xlink:href="#a" transform="matrix(.01223 .22834 .22834 -.01223 2559.81 368.627)"/><use xlink:href="#c" transform="matrix(.12534 .19125 .19125 -.12534 2585.84 212.776)"/><use xlink:href="#c" transform="matrix(.12534 .19125 .19125 -.12534 2585.84 212.776)"/><use xlink:href="#c" transform="scale(.22867 -.22867) rotate(48.85 6177.96 11347.154)"/><use xlink:href="#a" transform="matrix(.15047 -.17219 -.17219 -.15047 2779.658 74.2)"/><use xlink:href="#b" transform="scale(.22867 -.22867) rotate(48.85 6070.52 11938.624)"/><use xlink:href="#c" transform="matrix(-.11245 .18847 -.16367 -.12949 2326.02 128.684)"/><use xlink:href="#a" transform="matrix(.18789 .074 -.06426 .21636 1874.65 248.328)"/><use xlink:href="#c" transform="matrix(.18789 .074 -.06426 .21636 2010.4 244.659)"/><use xlink:href="#a" transform="matrix(.18789 .074 -.06426 .21636 1970.65 170.307)"/><use xlink:href="#b" transform="matrix(.18789 .074 -.06426 .21636 2101.36 181.143)"/><use xlink:href="#b" transform="matrix(.18789 .074 -.06426 .21636 1929.25 84.208)"/><use xlink:href="#a" transform="matrix(.18789 .074 -.06426 .21636 1929.25 84.208)"/><use xlink:href="#b" transform="matrix(.18789 .074 -.06426 .21636 2054.61 56.701)"/><use xlink:href="#a" transform="matrix(.18789 .074 -.06426 .21636 2249.68 81.657)"/><use xlink:href="#b" transform="scale(.22867 -.22867) rotate(65.911 3382.587 1684.722)"/><use xlink:href="#a" transform="matrix(-.06153 -.22023 .22023 -.06153 2797.97 362.815)"/><use xlink:href="#c" transform="matrix(-.06153 -.22023 .22023 -.06153 2706.43 236.054)"/><use xlink:href="#c" transform="matrix(.22867 0 0 -.22867 2949.47 125.005)"/><use xlink:href="#b" transform="matrix(.22867 0 0 -.22867 3096.19 179.06)"/><use xlink:href="#b" transform="matrix(.22867 0 0 -.22867 3028.82 234.599)"/><use xlink:href="#b" transform="matrix(.22867 0 0 -.22867 3174.75 273.053)"/><use xlink:href="#a" transform="matrix(.22867 0 0 -.22867 2955.85 300.641)"/><use xlink:href="#a" transform="matrix(.22867 0 0 -.22867 2955.85 300.641)"/><use xlink:href="#a" transform="matrix(.22867 0 0 -.22867 3083.54 373.379)"/><use xlink:href="#a" transform="matrix(.22867 0 0 -.22867 3219.74 410.722)"/><use xlink:href="#a" transform="matrix(-.06153 .22023 .22023 .06153 3451.77 175.148)"/><use xlink:href="#a" transform="matrix(-.06153 .22023 .22023 .06153 3375.46 305.346)"/><use xlink:href="#a" transform="matrix(-.06153 .22023 .22023 .06153 3407.8 87.103)"/><use xlink:href="#a" transform="matrix(-.06153 .22023 .22023 .06153 3407.8 87.103)"/><use xlink:href="#a" transform="matrix(-.06153 .22023 .22023 .06153 3303.38 190.507)"/><use xlink:href="#a" transform="matrix(-.06153 .22023 .22023 .06153 3230.76 311.634)"/><use xlink:href="#a" transform="scale(.22867 -.22867) rotate(65.911 8223.187 8754.912)"/><use xlink:href="#a" transform="matrix(.17594 .14606 .14606 -.17594 1488.17 209.841)"/><use xlink:href="#a" transform="matrix(.17594 .14606 .14606 -.17594 1566.53 345.15)"/><use xlink:href="#a" transform="matrix(.17594 .14606 .14606 -.17594 1479.22 344.848)"/><use xlink:href="#a" transform="matrix(.17594 .14606 .14606 -.17594 1566.93 467.649)"/><use xlink:href="#a" transform="scale(.22867 -.22867) rotate(-39.7 905.26 -9127.2)"/><use xlink:href="#a" transform="scale(.22867 -.22867) rotate(-39.7 905.26 -9127.2)"/><use xlink:href="#a" transform="matrix(.17594 .14607 .14607 -.17594 1432.7 486.591)"/></g><mask id="f"><path fill="url(#d)" d="M-29 0h3537v1500H-29z" transform="matrix(.9918 0 0 2.9677 28.762 0)"/></mask><linearGradient id="d" x2="1" gradientUnits="userSpaceOnUse" gradientTransform="matrix(0 231.829 -693.688 0 1645.73 10.109)"><stop offset="0" stop-color="#ebebeb"/><stop offset="1"/></linearGradient></defs><use xlink:href="#e" mask="url(#f)"/></svg>